<svg xmlns:dc="http://purl.org/dc/elements/1.1/" xmlns:cc="http://creativecommons.org/ns#" xmlns:rdf="http://www.w3.org/1999/02/22-rdf-syntax-ns#" xmlns:svg="http://www.w3.org/2000/svg" xmlns="http://www.w3.org/2000/svg" xmlns:sodipodi="http://sodipodi.sourceforge.net/DTD/sodipodi-0.dtd" xmlns:inkscape="http://www.inkscape.org/namespaces/inkscape" version="1.1" x="0px" y="0px" viewBox="0 0 100 125"><g transform="translate(0,-952.36218)"><path style="text-indent:0;text-transform:none;direction:ltr;block-progression:tb;baseline-shift:baseline;color:#000000;enable-background:accumulate;" d="m 7.000001,973.36218 c -1.6274,0 -3,1.37255 -3,3 l 0,52.00002 c 0,1.6274 1.3726,3 3,3 l 85.999998,0 c 1.6274,0 3,-1.3726 3,-3 l 0,-52.00002 c 0,-1.62745 -1.3726,-3 -3,-3 l -85.999998,0 z m 3.2812,4 79.437598,0 -39.718798,33.40632 -39.7188,-33.40632 z m -2.2812,3.28125 40.7188,34.25007 a 2.0001999,2.0001999 0 0 0 2.5624,0 l 40.718798,-34.25007 0,46.71877 -83.999998,0 0,-46.71877 z" fill="#000000" fill-opacity="1" stroke="none" marker="none" visibility="visible" display="inline" overflow="visible"/></g><text x="0" y="115" fill="#000000" font-size="5px" font-weight="bold" font-family="'Helvetica Neue', Helvetica, Arial-Unicode, Arial, Sans-serif">Created by il Capitano</text><text x="0" y="120" fill="#000000" font-size="5px" font-weight="bold" font-family="'Helvetica Neue', Helvetica, Arial-Unicode, Arial, Sans-serif">from the Noun Project</text></svg>