<svg xmlns="http://www.w3.org/2000/svg" xmlns:xlink="http://www.w3.org/1999/xlink" xml:space="preserve" version="1.1" style="shape-rendering:geometricPrecision;text-rendering:geometricPrecision;image-rendering:optimizeQuality;" viewBox="0 0 333.33 416.66249999999997" x="0px" y="0px" fill-rule="evenodd" clip-rule="evenodd"><defs><style type="text/css">
   
    .fil0 {fill:black}
   
  </style></defs><g><path class="fil0" d="M202.04 171.48l29.96 0 0 38.69 -29.96 0 0 -38.69zm-143.09 132.18l0 -136.94 -54.94 0 162.66 -137.03 50.86 42.85 0 -21.89 42.65 0 0 57.83 69.14 58.25 -54.94 0 0 136.94 -116.07 0 0 -132.18 -56.98 0 0 132.18 -42.38 0zm143.09 -87.42l29.96 0 0 38.69 -29.96 0 0 -38.69zm-35.81 0l29.96 0 0 38.69 -29.96 0 0 -38.69zm0 -44.76l29.96 0 0 38.69 -29.96 0 0 -38.69z"/></g><text x="0" y="348.33" fill="#000000" font-size="5px" font-weight="bold" font-family="'Helvetica Neue', Helvetica, Arial-Unicode, Arial, Sans-serif">Created by PURNOMO HARTOYO</text><text x="0" y="353.33" fill="#000000" font-size="5px" font-weight="bold" font-family="'Helvetica Neue', Helvetica, Arial-Unicode, Arial, Sans-serif">from the Noun Project</text></svg>