<svg xmlns="http://www.w3.org/2000/svg" xmlns:xlink="http://www.w3.org/1999/xlink" version="1.1" x="0px" y="0px" viewBox="0 0 64 80" enable-background="new 0 0 64 64" xml:space="preserve"><g><path d="M12.977,52.838c2.24,0,4.145,1.454,4.825,3.467h10.884h19.176c2.927,0,5.308-2.382,5.308-5.308   c0-2.928-2.382-5.309-5.308-5.309H37.461c-4.719,0-8.559-3.839-8.559-8.559c0-4.719,3.839-8.559,8.559-8.559h9.043   c0.68-2.013,2.585-3.467,4.824-3.467c2.808,0,5.092,2.284,5.092,5.092s-2.284,5.092-5.092,5.092c-2.239,0-4.144-1.454-4.824-3.467   h-9.043c-2.927,0-5.308,2.382-5.308,5.308c0,2.927,2.382,5.308,5.308,5.308h10.401c4.719,0,8.559,3.84,8.559,8.559   c0,4.719-3.84,8.559-8.559,8.559H28.686H17.801c-0.68,2.013-2.585,3.466-4.825,3.466c-2.807,0-5.091-2.284-5.091-5.091   C7.885,55.122,10.169,52.838,12.977,52.838z"/><path d="M4.221,37.014c0,1.873,0.64,3.715,1.803,5.184l6.567,8.257l6.564-8.253c1.165-1.473,1.806-3.315,1.806-5.188   c0-4.615-3.755-8.37-8.37-8.37C7.975,28.644,4.221,32.398,4.221,37.014z M9.471,37.014c0-1.721,1.399-3.12,3.12-3.12   c1.72,0,3.12,1.399,3.12,3.12c0,1.72-1.4,3.12-3.12,3.12C10.87,40.134,9.471,38.734,9.471,37.014z"/><path d="M43.04,9.348c0,1.873,0.64,3.715,1.803,5.184l6.567,8.257l6.564-8.253c1.165-1.473,1.806-3.315,1.806-5.188   c0-4.615-3.755-8.37-8.37-8.37C46.794,0.978,43.04,4.733,43.04,9.348z M48.289,9.348c0-1.721,1.399-3.12,3.12-3.12   c1.72,0,3.12,1.399,3.12,3.12c0,1.72-1.4,3.12-3.12,3.12C49.688,12.468,48.289,11.068,48.289,9.348z"/></g><text x="0" y="79" fill="#000000" font-size="5px" font-weight="bold" font-family="'Helvetica Neue', Helvetica, Arial-Unicode, Arial, Sans-serif">Created by Arafat Uddin</text><text x="0" y="84" fill="#000000" font-size="5px" font-weight="bold" font-family="'Helvetica Neue', Helvetica, Arial-Unicode, Arial, Sans-serif">from the Noun Project</text></svg>